<?xml version="1.0" standalone="no"?>
<!DOCTYPE svg PUBLIC "-//W3C//DTD SVG 20010904//EN"
 "http://www.w3.org/TR/2001/REC-SVG-20010904/DTD/svg10.dtd">
<svg version="1.0" xmlns="http://www.w3.org/2000/svg"
 width="512.000000pt" height="512.000000pt" viewBox="0 0 512.000000 512.000000"
 preserveAspectRatio="xMidYMid meet">
<metadata>
Created by potrace 1.14, written by Peter Selinger 2001-2017
</metadata>
<g transform="translate(0.000000,512.000000) scale(0.100000,-0.100000)"
fill="#000000" stroke="none">
<path d="M910 3100 l0 -910 1650 0 1650 0 0 910 0 910 -1650 0 -1650 0 0 -910z
m1396 680 c43 -11 118 -39 166 -62 l87 -41 78 35 c135 62 216 83 323 82 116 0
179 -23 241 -91 47 -51 67 -94 79 -171 17 -103 -25 -285 -94 -409 l-25 -45 33
-66 c68 -137 103 -282 92 -381 -8 -73 -57 -172 -104 -211 -67 -55 -132 -73
-252 -67 -112 5 -191 27 -314 89 l-59 30 -86 -41 c-124 -59 -235 -85 -336 -78
-96 6 -141 24 -202 80 -126 115 -129 329 -8 569 l34 68 -44 92 c-59 126 -79
204 -79 313 0 72 5 100 23 140 70 157 236 219 447 165z"/>
<path d="M2120 3589 c-53 -11 -80 -49 -80 -112 0 -50 16 -121 38 -179 l11 -27
136 135 c74 74 135 137 135 139 0 7 -130 43 -170 48 -19 2 -51 0 -70 -4z"/>
<path d="M2905 3593 c-11 -2 -50 -13 -86 -24 l-65 -20 132 -132 c73 -73 137
-134 141 -136 15 -6 52 123 53 182 0 77 -19 113 -68 126 -37 11 -70 12 -107 4z"/>
<path d="M2459 3351 c-52 -43 -125 -115 -163 -159 -107 -127 -104 -109 -39
-188 68 -83 178 -192 251 -247 l52 -40 38 26 c99 69 312 294 312 329 0 18 -51
80 -149 181 -67 69 -191 177 -203 177 -3 0 -47 -35 -99 -79z m189 -148 c90
-66 76 -210 -24 -258 -106 -50 -224 36 -211 153 9 84 74 136 160 129 27 -2 61
-13 75 -24z"/>
<path d="M2082 2863 c-22 -41 -42 -131 -42 -189 0 -51 4 -68 23 -90 39 -45
150 -44 270 3 l37 15 -47 41 c-60 52 -125 117 -185 185 -41 47 -48 51 -56 35z"/>
<path d="M2890 2738 l-136 -137 62 -20 c181 -59 264 -29 264 97 0 46 -30 164
-47 187 -5 6 -65 -47 -143 -127z"/>
<path d="M2535 2001 c-75 -18 -115 -67 -115 -141 0 -151 204 -201 269 -66 12
23 21 53 21 66 0 48 -39 108 -84 129 -45 23 -46 23 -91 12z"/>
</g>
</svg>
